<?xml version="1.0" encoding="utf-8"?>
<!-- Generator: Adobe Illustrator 22.1.0, SVG Export Plug-In . SVG Version: 6.00 Build 0)  -->
<svg version="1.1" id="Layer_1" xmlns="http://www.w3.org/2000/svg" xmlns:xlink="http://www.w3.org/1999/xlink" x="0px" y="0px"
	 viewBox="0 0 200 200" style="enable-background:new 0 0 200 200;" xml:space="preserve" width="200px" height="200px">
<style type="text/css">
	.st0{fill:#FFFFFF;}
	.st1{fill:#E7A6C6;}
</style>
<g>
	<g>
		<g>
			<rect y="0" class="st0" width="200" height="200"/>
			<path class="st1" d="M200,0H0v200h200V0L200,0z"/>
		</g>
	</g>
	<polyline class="st0" points="193.3,6.7 193.3,193.3 6.7,193.3 6.7,6.7 193.3,6.7 	"/>
	<g>
		<path class="st1" d="M152.1,17.2v4.5v4.5v4.5v4.5v4.5v4.5v4.5h31.7v-4.5v-4.5v-4.5v-4.5v-4.5v-4.5v-4.5H152.1z M179.2,26.3v4.5
			v4.5v4.5v4.5h-22.6v-4.5v-4.5v-4.5v-4.5v-4.5h22.6V26.3z"/>
		<polygon class="st1" points="25.3,30.8 25.3,35.3 25.3,39.8 38.9,39.8 38.9,35.3 38.9,30.8 38.9,26.3 25.3,26.3 		"/>
		<rect x="52.5" y="30.8" class="st1" width="4.5" height="4.5"/>
		<polygon class="st1" points="61.5,35.3 57,35.3 57,39.8 57,44.4 61.5,44.4 61.5,39.8 		"/>
		<rect x="93.2" y="35.3" class="st1" width="4.5" height="4.5"/>
		<polygon class="st1" points="138.5,39.8 138.5,44.4 143,44.4 143,48.9 143,53.4 147.5,53.4 147.5,48.9 147.5,44.4 147.5,39.8 
			143,39.8 143,35.3 147.5,35.3 147.5,30.8 147.5,26.3 147.5,21.7 143,21.7 143,17.2 129.4,17.2 129.4,21.7 120.4,21.7 120.4,26.3 
			120.4,30.8 124.9,30.8 124.9,26.3 134,26.3 134,21.7 138.5,21.7 138.5,26.3 134,26.3 134,30.8 134,35.3 138.5,35.3 		"/>
		<polygon class="st1" points="174.7,35.3 174.7,30.8 174.7,26.3 161.1,26.3 161.1,30.8 161.1,35.3 161.1,39.8 174.7,39.8 		"/>
		<rect x="84.2" y="39.8" class="st1" width="4.5" height="4.5"/>
		<path class="st1" d="M47.9,44.4v-4.5v-4.5v-4.5v-4.5v-4.5v-4.5H16.2v4.5v4.5v4.5v4.5v4.5v4.5v4.5h31.7V44.4z M20.8,44.4v-4.5v-4.5
			v-4.5v-4.5v-4.5h22.6v4.5v4.5v4.5v4.5v4.5H20.8z"/>
		<rect x="52.5" y="44.4" class="st1" width="4.5" height="4.5"/>
		<rect x="61.5" y="44.4" class="st1" width="4.5" height="4.5"/>
		<rect x="88.7" y="44.4" class="st1" width="4.5" height="4.5"/>
		<rect x="106.8" y="44.4" class="st1" width="4.5" height="4.5"/>
		<rect x="134" y="44.4" class="st1" width="4.5" height="4.5"/>
		<polygon class="st1" points="88.7,53.4 88.7,48.9 84.2,48.9 84.2,44.4 79.6,44.4 79.6,48.9 75.1,48.9 75.1,44.4 75.1,39.8 
			79.6,39.8 79.6,35.3 79.6,30.8 75.1,30.8 75.1,26.3 79.6,26.3 79.6,21.7 75.1,21.7 75.1,17.2 70.6,17.2 70.6,21.7 66,21.7 
			66,17.2 52.5,17.2 52.5,21.7 57,21.7 57,26.3 66,26.3 66,30.8 66,35.3 70.6,35.3 70.6,39.8 66,39.8 66,44.4 70.6,44.4 70.6,48.9 
			70.6,53.4 66,53.4 66,58 79.6,58 79.6,53.4 		"/>
		<polygon class="st1" points="97.7,53.4 97.7,58 102.3,58 102.3,53.4 102.3,48.9 102.3,44.4 106.8,44.4 106.8,39.8 97.7,39.8 
			97.7,44.4 97.7,48.9 93.2,48.9 93.2,53.4 		"/>
		<rect x="34.4" y="53.4" class="st1" width="13.6" height="4.5"/>
		<rect x="52.5" y="53.4" class="st1" width="4.5" height="4.5"/>
		<rect x="88.7" y="53.4" class="st1" width="4.5" height="4.5"/>
		<rect x="138.5" y="53.4" class="st1" width="4.5" height="4.5"/>
		<rect x="147.5" y="53.4" class="st1" width="4.5" height="4.5"/>
		<polygon class="st1" points="179.2,58 174.7,58 174.7,62.5 179.2,62.5 179.2,67 174.7,67 174.7,71.5 179.2,71.5 179.2,76.1 
			174.7,76.1 174.7,71.5 170.2,71.5 170.2,76.1 165.6,76.1 165.6,80.6 170.2,80.6 170.2,85.1 174.7,85.1 174.7,89.6 179.2,89.6 
			179.2,85.1 183.8,85.1 183.8,80.6 183.8,76.1 183.8,71.5 183.8,67 183.8,62.5 183.8,58 183.8,53.4 179.2,53.4 		"/>
		<rect x="61.5" y="58" class="st1" width="4.5" height="4.5"/>
		<rect x="79.6" y="58" class="st1" width="9.1" height="4.5"/>
		<rect x="143" y="58" class="st1" width="4.5" height="4.5"/>
		<rect x="70.6" y="62.5" class="st1" width="9.1" height="4.5"/>
		<polygon class="st1" points="93.2,62.5 88.7,62.5 88.7,67 84.2,67 84.2,71.5 84.2,76.1 88.7,76.1 88.7,71.5 102.3,71.5 102.3,67 
			93.2,67 		"/>
		<polygon class="st1" points="152.1,67 156.6,67 156.6,62.5 161.1,62.5 161.1,58 152.1,58 152.1,62.5 		"/>
		<polygon class="st1" points="170.2,67 170.2,62.5 170.2,58 170.2,53.4 165.6,53.4 165.6,58 165.6,62.5 161.1,62.5 161.1,67 		"/>
		<rect x="57" y="67" class="st1" width="4.5" height="4.5"/>
		<rect x="66" y="67" class="st1" width="4.5" height="4.5"/>
		<rect x="147.5" y="67" class="st1" width="4.5" height="4.5"/>
		<rect x="70.6" y="71.5" class="st1" width="9.1" height="4.5"/>
		<rect x="161.1" y="71.5" class="st1" width="4.5" height="4.5"/>
		<polygon class="st1" points="152.1,80.6 152.1,85.1 156.6,85.1 156.6,80.6 156.6,76.1 156.6,71.5 152.1,71.5 152.1,76.1 		"/>
		<polygon class="st1" points="34.4,85.1 34.4,80.6 34.4,76.1 25.3,76.1 25.3,71.5 38.9,71.5 38.9,67 34.4,67 34.4,62.5 34.4,58 
			29.8,58 29.8,53.4 25.3,53.4 25.3,58 25.3,62.5 25.3,67 20.8,67 20.8,62.5 16.2,62.5 16.2,67 16.2,71.5 16.2,76.1 16.2,80.6 
			16.2,85.1 16.2,89.6 20.8,89.6 20.8,85.1 20.8,80.6 25.3,80.6 25.3,85.1 25.3,89.6 29.8,89.6 29.8,85.1 		"/>
		<polygon class="st1" points="52.5,80.6 52.5,76.1 57,76.1 57,71.5 52.5,71.5 52.5,67 57,67 57,62.5 43.4,62.5 43.4,67 47.9,67 
			47.9,71.5 43.4,71.5 43.4,76.1 47.9,76.1 47.9,80.6 38.9,80.6 38.9,85.1 52.5,85.1 		"/>
		<polygon class="st1" points="75.1,80.6 70.6,80.6 70.6,76.1 61.5,76.1 61.5,80.6 57,80.6 57,85.1 57,89.6 38.9,89.6 38.9,94.2 
			61.5,94.2 61.5,98.7 57,98.7 57,103.2 57,107.8 66,107.8 66,103.2 66,98.7 66,94.2 66,89.6 61.5,89.6 61.5,85.1 70.6,85.1 
			70.6,89.6 75.1,89.6 75.1,85.1 		"/>
		<rect x="161.1" y="80.6" class="st1" width="4.5" height="4.5"/>
		<rect x="34.4" y="85.1" class="st1" width="4.5" height="4.5"/>
		<rect x="88.7" y="85.1" class="st1" width="4.5" height="4.5"/>
		<path class="st1" d="M156.6,89.6H143v-4.5h-9v-4.5h-4.5v4.5v4.5h-9.1v-4.5v-4.5h9.1v-4.5h4.5v-4.5h4.5v4.5v4.5h9.1v-4.5H143v-4.5
			V67h-9v-4.5V58v-4.5V49h-4.5v-4.5H125V49h-4.5v-4.5h4.5V40h4.5v4.5h4.5V40v-4.5h-18.1V31v-4.5V22v-4.5h-4.5V22v4.5h-4.5V22h-4.5
			v4.5h-4.5V22h-4.5v-4.5h-4.5V22v4.5V31h13.6v4.5h4.5V40h9.1v4.5V49v4.5V58h-4.5v-4.5h-4.5V58h-4.5v4.5V67h4.5v4.5V76h4.5v-4.5V67
			v-4.5h4.5V67v4.5V76v4.5h-4.5V85h-4.5v-4.5H93.2V85h4.5v4.5h4.5V94v4.5v4.5v4.5v4.5h-4.5v4.5h-4.5v4.5h-4.5v-4.5V112h-9.1v-4.5
			V103h-9.1v4.5H75v4.5h-9v4.5h-4.5v4.5h9.1v-4.5h4.5v4.5h4.5v-4.5h4.5v4.5h-4.5v4.5v4.5v4.5h4.5V130h4.5v-4.5h4.5v4.5h-4.5v4.5
			h13.6v4.5h-9.1v4.5h4.5v4.5h-4.5v4.5h4.5v4.5h4.5v4.5h-4.5v4.5h-4.5v4.5h9.1v4.5h-4.5v4.5h9.1V175h9.1v4.5v4.5H134v-4.5h9.1v4.5
			h13.6v-4.5h-4.5V175h-4.5v-4.5h-9.1v4.5h-9.1v4.5h-9.1V175v-4.5h-4.5V166h-4.5v4.5h-4.5V166h4.5v-4.5h-4.5V157v-4h-4.5v-4.5h4.5
			v4.5h22.6v-4.5H125V144h-4.5v4.5h-9.1V144h-4.5v-4.5V135v-4.5h-9.1V126h13.6v-4.5h4.5V117h-9.1v4.5h-4.5V117h4.5v-4.5V108h4.5v4.5
			h4.5v4.5h4.5v-4.5h4.5V108h9.1v-4.5h4.5V99H134v-4.5V90h4.5v4.5h4.5V99v4.5v4.5h-4.5v4.5h9.1V108h4.5v4.5v4.5h-4.5v4.5H143v4.5
			h4.5v4.5v4.5h4.5v-4.5h13.6V126H152v-4.5h4.5V117v-4.5h4.5V108h-4.5v-4.5H152V99h-4.5v-4.5h4.5V99h4.5v-4.5h4.5V90v-4.5h-4.5v4.1
			H156.6z M120.4,71.5V67h4.5v-4.5h-4.5V58h9.1v4.5V67v4.5H125V76h-4.5L120.4,71.5L120.4,71.5z M129.4,98.7v4.5h-9.1v4.5h-4.5v-4.5
			h-9.1v-4.5h4.5v-4.5h-4.5v-4.5h4.5v4.5h9.1v4.5H129.4z"/>
		<rect x="29.8" y="89.6" class="st1" width="4.5" height="4.5"/>
		<polygon class="st1" points="34.4,98.7 34.4,103.2 29.8,103.2 29.8,98.7 29.8,94.2 20.8,94.2 20.8,98.7 25.3,98.7 25.3,103.2 
			25.3,107.8 25.3,112.3 38.9,112.3 38.9,116.8 29.8,116.8 29.8,121.3 25.3,121.3 25.3,125.9 29.8,125.9 29.8,130.4 34.4,130.4 
			34.4,125.9 38.9,125.9 38.9,121.3 47.9,121.3 47.9,116.8 43.4,116.8 43.4,112.3 47.9,112.3 47.9,116.8 52.5,116.8 52.5,112.3 
			52.5,107.8 38.9,107.8 38.9,103.2 38.9,98.7 38.9,94.2 34.4,94.2 		"/>
		<rect x="43.4" y="98.7" class="st1" width="4.5" height="4.5"/>
		<rect x="79.6" y="98.7" class="st1" width="4.5" height="4.5"/>
		<polygon class="st1" points="93.2,103.2 84.2,103.2 84.2,107.8 88.7,107.8 88.7,112.3 97.7,112.3 97.7,107.8 97.7,103.2 
			97.7,98.7 97.7,94.2 88.7,94.2 88.7,89.6 84.2,89.6 84.2,85.1 84.2,80.6 84.2,76.1 79.6,76.1 79.6,80.6 79.6,85.1 79.6,89.6 
			75.1,89.6 75.1,94.2 84.2,94.2 84.2,98.7 93.2,98.7 		"/>
		<rect x="115.8" y="98.7" class="st1" width="4.5" height="4.5"/>
		<rect x="161.1" y="103.2" class="st1" width="4.5" height="4.5"/>
		<polygon class="st1" points="179.2,107.8 183.8,107.8 183.8,103.2 183.8,98.7 183.8,94.2 170.2,94.2 170.2,89.6 165.6,89.6 
			165.6,94.2 165.6,98.7 165.6,103.2 179.2,103.2 		"/>
		<polygon class="st1" points="20.8,107.8 20.8,103.2 16.2,103.2 16.2,107.8 16.2,112.3 20.8,112.3 		"/>
		<rect x="57" y="112.3" class="st1" width="4.5" height="4.5"/>
		<polygon class="st1" points="170.2,116.8 174.7,116.8 174.7,121.3 179.2,121.3 179.2,125.9 179.2,130.4 179.2,134.9 174.7,134.9 
			174.7,139.4 179.2,139.4 179.2,144 183.8,144 183.8,139.4 183.8,134.9 183.8,130.4 183.8,125.9 183.8,121.3 183.8,116.8 
			183.8,112.3 170.2,112.3 		"/>
		<rect x="16.2" y="116.8" class="st1" width="4.5" height="4.5"/>
		<polygon class="st1" points="124.9,121.3 129.4,121.3 129.4,116.8 134,116.8 134,112.3 124.9,112.3 124.9,116.8 		"/>
		<rect x="161.1" y="116.8" class="st1" width="9.1" height="4.5"/>
		<rect x="47.9" y="121.3" class="st1" width="4.5" height="4.5"/>
		<polygon class="st1" points="129.4,121.3 129.4,125.9 138.5,125.9 138.5,121.3 138.5,116.8 134,116.8 134,121.3 		"/>
		<rect x="20.8" y="125.9" class="st1" width="4.5" height="4.5"/>
		<rect x="43.4" y="125.9" class="st1" width="4.5" height="4.5"/>
		<rect x="52.5" y="125.9" class="st1" width="4.5" height="4.5"/>
		<polygon class="st1" points="129.4,125.9 124.9,125.9 124.9,121.3 115.8,121.3 115.8,125.9 120.4,125.9 120.4,130.4 120.4,134.9 
			115.8,134.9 115.8,139.4 124.9,139.4 124.9,144 129.4,144 129.4,148.5 134,148.5 134,144 138.5,144 138.5,139.4 129.4,139.4 
			129.4,134.9 138.5,134.9 138.5,130.4 129.4,130.4 		"/>
		<rect x="138.5" y="125.9" class="st1" width="4.5" height="4.5"/>
		<rect x="111.3" y="130.4" class="st1" width="4.5" height="4.5"/>
		<rect x="170.2" y="130.4" class="st1" width="4.5" height="4.5"/>
		<rect x="16.2" y="134.9" class="st1" width="4.5" height="4.5"/>
		<rect x="34.4" y="134.9" class="st1" width="4.5" height="4.5"/>
		<rect x="43.4" y="134.9" class="st1" width="4.5" height="4.5"/>
		<rect x="165.6" y="134.9" class="st1" width="4.5" height="4.5"/>
		<rect x="20.8" y="139.4" class="st1" width="4.5" height="4.5"/>
		<rect x="38.9" y="139.4" class="st1" width="4.5" height="4.5"/>
		<rect x="79.6" y="139.4" class="st1" width="9.1" height="4.5"/>
		<rect x="16.2" y="144" class="st1" width="4.5" height="4.5"/>
		<rect x="25.3" y="144" class="st1" width="4.5" height="4.5"/>
		<rect x="34.4" y="144" class="st1" width="4.5" height="4.5"/>
		<rect x="88.7" y="144" class="st1" width="4.5" height="4.5"/>
		<rect x="174.7" y="144" class="st1" width="4.5" height="4.5"/>
		<rect x="52.5" y="148.5" class="st1" width="4.5" height="4.5"/>
		<path class="st1" d="M16.2,157.6v4.5v4.5v4.5v4.5v4.5v4.5h31.7v-4.5v-4.5v-4.5v-4.5v-4.5v-4.5V153H16.2V157.6z M43.4,157.6v4.5
			v4.5v4.5v4.5v4.5H20.8v-4.5v-4.5v-4.5v-4.5v-4.5H43.4z"/>
		<rect x="57" y="153" class="st1" width="4.5" height="4.5"/>
		<path class="st1" d="M93.2,157.6V153h-4.5v-4.5h-9.1V144h-4.5v-4.5h4.5V135h-4.5v-4.5h-4.5V126H66v4.5h-4.5v4.5H57v4.5h-9.1v4.5
			h-4.5v4.5h9.1V144H57v4.5h9v4.5h9.1v4.5H61.5v4.5v4.5H66V162h9.1v4.5h9.1V162h-4.5v-4.5V153h4.5v4.5v4.5h4.5v-4.5h4.5V157.6z
			 M66,139.4h4.5v4.5H66V139.4z"/>
		<rect x="152.1" y="153" class="st1" width="4.5" height="4.5"/>
		<polygon class="st1" points="170.2,153 170.2,157.6 183.8,157.6 183.8,153 183.8,148.5 179.2,148.5 179.2,153 		"/>
		<polygon class="st1" points="52.5,162.1 52.5,166.6 57,166.6 57,162.1 57,157.6 52.5,157.6 		"/>
		<rect x="93.2" y="157.6" class="st1" width="4.5" height="4.5"/>
		<rect x="111.3" y="157.6" class="st1" width="4.5" height="4.5"/>
		<rect x="88.7" y="162.1" class="st1" width="4.5" height="4.5"/>
		<rect x="120.4" y="166.6" class="st1" width="4.5" height="4.5"/>
		<polygon class="st1" points="129.4,171.1 134,171.1 134,166.6 138.5,166.6 138.5,162.1 138.5,157.6 129.4,157.6 129.4,162.1 
			124.9,162.1 124.9,166.6 129.4,166.6 		"/>
		<path class="st1" d="M152.1,166.6h9.1v4.5v4.5h4.5v-4.5v-4.5h4.5v-4.5h-4.5v-4.5V153v-4.5h4.5V144h-9.1v-4.5h-13.6v4.5H143v4.5
			v4.5v4.5v4.5v4.5h4.5v4.5h4.5v-4.4H152.1z M147.5,157.6V153v-4.5h13.6v4.5v4.5v4.5h-13.6V157.6z"/>
		<polygon class="st1" points="179.2,171.1 179.2,175.7 183.8,175.7 183.8,171.1 183.8,166.6 170.2,166.6 170.2,171.1 		"/>
		<polygon class="st1" points="38.9,171.1 38.9,166.6 38.9,162.1 25.3,162.1 25.3,166.6 25.3,171.1 25.3,175.7 38.9,175.7 		"/>
		<rect x="52.5" y="171.1" class="st1" width="4.5" height="4.5"/>
		<rect x="66" y="171.1" class="st1" width="4.5" height="4.5"/>
		<rect x="124.9" y="171.1" class="st1" width="4.5" height="4.5"/>
		<polygon class="st1" points="84.2,175.7 84.2,171.1 79.6,171.1 79.6,175.7 70.6,175.7 70.6,180.2 66,180.2 66,175.7 57,175.7 
			57,180.2 57,184.7 88.7,184.7 88.7,180.2 84.2,180.2 		"/>
		<rect x="88.7" y="175.7" class="st1" width="4.5" height="4.5"/>
		<rect x="165.6" y="175.7" class="st1" width="4.5" height="4.5"/>
		<polygon class="st1" points="174.7,180.2 174.7,184.7 183.8,184.7 183.8,180.2 179.2,180.2 179.2,175.7 174.7,175.7 		"/>
		<rect x="93.2" y="180.2" class="st1" width="4.5" height="4.5"/>
		<rect x="106.8" y="180.2" class="st1" width="4.5" height="4.5"/>
	</g>
	<g>
		<rect x="81.5" y="82.5" class="st1" width="37" height="37"/>
		<g>
			<path class="st0" d="M118.3,82.6v36.7H81.6V82.6H118.3z M118.6,82.4h-0.3H81.6h-0.3v0.3v36.7v0.3h0.3h36.7h0.3v-0.3V82.6
				C118.6,82.6,118.6,82.4,118.6,82.4z"/>
			<path class="st0" d="M88,106L88,106L88,106c1-0.7,1.6-1.3,1.6-2.4c0-1.4-1.3-2.2-2.5-2.2c-1.3,0-2.7,1.1-2.7,2.6s0.8,2.1,1.6,2.5
				l0,0l0,0c-1.4,0.7-2.1,1.6-2.1,2.7c0,1.6,1.2,2.8,2.8,2.8c2.1,0,3.2-1.7,3.2-3.2C90,107.3,88.9,106.5,88,106 M87.2,101.8
				c0.9,0,1.3,0.6,1.3,2.1c0,1.2-0.5,1.7-0.9,1.9l0,0l0,0c-0.5-0.2-1.3-0.7-1.6-1l0,0c-0.3-0.3-0.5-0.7-0.5-1.3
				C85.6,102.5,86.2,101.8,87.2,101.8 M87,111.7c-1.6,0-1.7-1.6-1.7-2.3c0-1.2,0.2-2,1.2-2.6l0,0l0.4,0.2c1,0.5,1.9,1,1.9,2.4
				C88.8,110.3,88.1,111.7,87,111.7"/>
			<path class="st0" d="M87.3,93.9c-0.7,0-1.4,0.3-1.8,0.8l0,0v-0.1c0.1-0.8,0.3-1.9,0.6-2.8c0.4-1.1,1.1-1.6,1.8-1.6
				c0.5,0,0.9,0.2,0.9,0.6c0,0.2-0.1,0.4-0.1,0.5l-0.1,0.1c-0.1,0.3-0.1,0.6,0,0.8c0.1,0.1,0.2,0.2,0.4,0.3c0.5,0,0.8-0.3,0.8-0.8
				c0-0.7-0.4-1.8-1.9-1.8c-2.2,0-3.9,2.6-3.9,6.1c0,4.2,2.4,4.5,3.1,4.5c1.6,0,2.8-1.5,2.8-3.4C90,95.6,89.3,93.9,87.3,93.9
				 M88.4,99.4c-0.2,0.5-0.6,0.8-1.2,0.8c-0.7,0-1.2-0.2-1.4-0.7c-0.3-0.8-0.4-1.7-0.4-3.1c0-0.5,0.1-0.8,0.2-1.1
				c0,0,0.5-0.9,1.6-0.9c0.5,0,0.9,0.2,1.1,0.6c0.1,0.2,0.4,0.8,0.4,2.2C88.7,98.2,88.7,98.9,88.4,99.4"/>
			<path class="st0" d="M91.3,92.6L91.3,92.6L91.3,92.6c0.2,0.1,0.9,0.1,0.9,0.6V99c0,0.5-0.7,0.5-0.8,0.5h-0.1v0.6h3.1v-0.4v-0.1
				h-0.1c-0.1,0-0.8,0-0.8-0.5v-5.8c0-0.5,0.7-0.5,0.8-0.5h0.1v-0.5h-3.1V92.6z"/>
			<path class="st0" d="M113.9,92.1v0.5h0.4l0.1,0.1c0,0,0,0.1,0,0.2l-1.4,2.7l0,0l-1.2-2.7c0-0.1-0.1-0.2,0-0.2l0.1-0.1h0.6v-0.5
				h-3v0.4v0.1h0.1c0.1,0,0.7,0,1,0.6l1.6,3.5V99c0,0.5-0.7,0.5-0.8,0.5h-0.1v0.6h3.1v-0.4v-0.1h-0.1c0,0-0.3,0-0.5-0.1
				s-0.3-0.2-0.3-0.5v-2.6l1.6-3.1c0.3-0.6,0.7-0.6,0.8-0.6l0,0h0.2v-0.5h-2.2V92.1z"/>
			<path class="st0" d="M102.3,99.6c0,0-0.7,0-1-0.5l-1.9-3.6l1.1-2.2c0.3-0.6,0.9-0.6,1.1-0.6h0.2v-0.5h-2.3v0.5h0.4l0.1,0.1
				c0,0,0,0.1,0,0.2c-0.1,0.2-0.6,1.1-0.9,1.8l0,0l0,0L98.2,93c0-0.1-0.1-0.2,0-0.2l0.1-0.1h0.6v-0.5h-3.2v0.4v0.1h0.1
				c0,0,0.8,0,1.1,0.6l1.5,2.9L96.9,99c-0.3,0.6-1,0.6-1.1,0.6h-0.2v0.5h2.3v-0.5h-0.4l-0.1-0.1c0,0,0-0.1,0-0.2
				c0.2-0.3,1.1-2.2,1.2-2.4h0.1l1.2,2.4c0,0.1,0.1,0.2,0,0.2l-0.1,0.1h-0.6v0.5h3.2L102.3,99.6L102.3,99.6L102.3,99.6z"/>
			<path class="st0" d="M107.3,92.1h-3h-1.1v1.5h0.5v-0.1c0,0,0-0.8,0.6-0.8h0.6c0.3,0,0.3,0.3,0.3,0.3v6c0,0.5-0.7,0.6-0.8,0.6
				h-0.1v0.5h3.1v-0.5h-0.1c-0.1,0-0.8,0-0.8-0.6v-6c0,0,0-0.3,0.3-0.3h0.6c0.5,0,0.6,0.7,0.6,0.7v0.3h0.5v-1.5L107.3,92.1
				L107.3,92.1z"/>
			<path class="st0" d="M106.1,102.3L106.1,102.3L106.1,102.3c0.3,0.1,0.8,0.1,0.8,0.6v2.5h-2.3v-2.5c0-0.5,0.6-0.5,0.8-0.5h0.1
				v-0.5h-3.1v0.4v0.1h0.1c0,0,0.8,0,0.8,0.5v5.8c0,0.5-0.7,0.5-0.8,0.5l0,0h-0.1v0.6h3.1v-0.4v-0.1h-0.1c-0.2,0-0.7,0-0.7-0.5V106
				h2.3v2.7c0,0.5-0.6,0.5-0.8,0.5l0,0h-0.1v0.6h3.1v-0.4v-0.1h-0.1c-0.1,0-0.8,0-0.8-0.5V103c0-0.5,0.7-0.5,0.8-0.5h0.1V102h-3.1
				V102.3z"/>
			<path class="st0" d="M98.6,107.1L98.6,107.1c0.3,0,1,0,1,0.5v0.1c0,1.1-0.7,1.7-1.3,1.7c-1.2,0-1.8-1.2-1.8-3.6
				c0-3.3,1-3.6,1.8-3.6c1.3,0,1.9,1.1,1.9,1.5v0.1h0.6v-2h-0.6v0.1c0,0,0,0.2-0.2,0.2l0,0c0,0-0.1,0-0.2-0.1
				c-0.3-0.1-0.9-0.4-1.4-0.4c-1.1,0-3.1,0.9-3.1,4.2c0,1.7,1.2,4.1,3.1,4.1c0.7,0,1.1-0.3,1.4-0.5c0.2-0.1,0.3-0.2,0.3-0.2
				c0.2,0,0.3,0.1,0.3,0.1v0.1h0.4v-1.9c0-0.5,0.5-0.5,0.6-0.5h0.1v-0.6h-3L98.6,107.1L98.6,107.1z"/>
			<path class="st0" d="M114.3,101.8h-3h-1.1v1.5h0.5v-0.1c0-0.1,0-0.8,0.6-0.8h0.6c0.3,0,0.3,0.3,0.3,0.3v6.1
				c0,0.5-0.7,0.6-0.8,0.6h-0.1v0.5h3.1v-0.5h-0.1c-0.1,0-0.8,0-0.8-0.6v-6.1c0-0.1,0-0.3,0.3-0.3h0.6c0.5,0,0.6,0.7,0.6,0.8v0.1
				h0.5v-1.5H114.3z"/>
			<path class="st0" d="M91.3,102.3L91.3,102.3L91.3,102.3c0.2,0.1,0.9,0.1,0.9,0.6v5.8c0,0.5-0.7,0.5-0.8,0.5h-0.1v0.6h3.1v-0.4
				v-0.1h-0.1c-0.1,0-0.8,0-0.8-0.5V103c0-0.5,0.7-0.5,0.8-0.5h0.1v-0.6h-3.1V102.3z"/>
		</g>
	</g>
</g>
</svg>
